<?xml version="1.0" encoding="utf-8"?>
<!-- Generator: Adobe Illustrator 17.1.0, SVG Export Plug-In . SVG Version: 6.00 Build 0)  -->
<!DOCTYPE svg PUBLIC "-//W3C//DTD SVG 1.1//EN" "http://www.w3.org/Graphics/SVG/1.1/DTD/svg11.dtd">
<svg version="1.1" id="Layer_1" xmlns="http://www.w3.org/2000/svg" xmlns:xlink="http://www.w3.org/1999/xlink" x="0px" y="0px"
	 viewBox="0 0 128 128" enable-background="new 0 0 128 128" xml:space="preserve">
<g>
	<polygon fill="#E44D26" points="7.5,3 116.4,3 106.8,114.5 62,127 17.1,114.1 	"/>
	<polygon fill="#F16529" points="62,12.5 106,12.5 97.9,107.6 62,117.5 	"/>
	<polygon fill="none" points="78.1,67 62,67.2 62,88.8 77.3,84.3 	"/>
	<polygon fill="none" points="42.8,39.7 43.8,53.2 62,53.2 62,39.7 	"/>
	<polygon fill="#EBEBEB" points="61.9,88.8 46.5,84.3 46.2,74 32.1,73.7 33.4,95.5 61.9,103.9 62,103.9 62,88.8 	"/>
	<polygon fill="#EBEBEB" points="42.8,39.7 62,39.7 62,26.3 28,26.3 30.9,67.5 62,67.2 62,53.2 43.8,53.2 	"/>
	<polygon fill="#FFFFFF" points="94.5,39.7 95.8,26.3 62,26.3 62,39.7 	"/>
	<polygon fill="#FFFFFF" points="78.1,67 77.3,84.3 62,88.8 62,103.9 89.9,95.4 93.8,53.2 62,53.2 62,67.2 	"/>
</g>
</svg>
